<?xml version="1.0" encoding="iso-8859-1"?>
<!-- Generator: Adobe Illustrator 19.0.0, SVG Export Plug-In . SVG Version: 6.00 Build 0)  -->
<svg version="1.1" id="Layer_1" xmlns="http://www.w3.org/2000/svg" xmlns:xlink="http://www.w3.org/1999/xlink" x="0px" y="0px"
	 viewBox="0 0 512 512" style="enable-background:new 0 0 512 512;" xml:space="preserve">
<path style="fill:#FFDFB3;" d="M483.364,155.826h-42.902l-26.876,53.75c-1.152,2.321-1.761,4.875-1.761,7.467v33.391
	c0,9.223,7.479,16.696,16.696,16.696h66.783c9.217,0,16.696-7.473,16.696-16.696v-33.391c0-2.592-0.609-5.147-1.761-7.467
	L483.364,155.826z"/>
<path style="fill:#FFCC99;" d="M512,217.043v33.391c0,9.238-7.456,16.696-16.696,16.696h-33.391V155.826h21.481l26.827,53.76
	C511.443,211.923,512,214.483,512,217.043z"/>
<path style="fill:#A6673A;" d="M446.978,142.793l-12.081,24.163h54.033l-12.081-24.163c-2.827-5.658-8.609-9.228-14.936-9.228
	S449.804,137.136,446.978,142.793z"/>
<path style="fill:#99522E;" d="M488.959,166.957h-27.046v-33.391c6.345,0,12.133,3.562,14.916,9.238l6.565,13.023L488.959,166.957z"
	/>
<path style="fill:#736056;" d="M461.913,512c-27.636,0-50.087-22.432-50.087-50.087v-33.391c0-9.223,7.479-16.696,16.696-16.696
	h66.783c9.217,0,16.696,7.473,16.696,16.696v33.391C512,489.532,489.532,512,461.913,512z"/>
<path style="fill:#665247;" d="M495.304,411.826h-33.391V512C489.516,512,512,489.516,512,461.913v-33.391
	C512,419.283,504.544,411.826,495.304,411.826z"/>
<path style="fill:#3ABBE6;" d="M512,445.217H411.826V233.739H512V445.217z"/>
<path style="fill:#33A6CC;" d="M461.913,233.739v211.478H512V233.739H461.913z"/>
<path style="fill:#F28618;" d="M495.304,100.174H361.739c-9.217,0-16.696-7.473-16.696-16.696C345.043,37.446,382.49,0,428.522,0
	S512,37.446,512,83.478C512,92.701,504.521,100.174,495.304,100.174z"/>
<path style="fill:#EDF0F2;" d="M150.261,0c-46.08,0-83.478,37.398-83.478,83.478v345.043c0,9.238,7.456,16.696,16.696,16.696
	c0,0,10.574,0,25.824,0c37.731,0,103.847,0,103.847,0C220.94,483.283,254.665,512,294.958,512c4.785,0,9.572-0.445,14.136-1.224
	c39.402-6.678,69.343-40.961,69.343-82.254V50.087C378.436,22.483,400.919,0,428.523,0H150.261z"/>
<path style="fill:#DAE1E6;" d="M244.87,495.163C258.839,505.695,276.162,512,294.957,512c4.785,0,9.572-0.445,14.136-1.224
	c39.402-6.678,69.343-40.961,69.343-82.254V50.087C378.435,22.483,400.918,0,428.522,0H328.348
	c-46.103,0-83.478,37.375-83.478,83.478V495.163z"/>
<g>
	<circle style="fill:#C9D2D9;" cx="150.261" cy="116.87" r="16.696"/>
	<path style="fill:#C9D2D9;" d="M294.957,133.565h-77.913c-9.217,0-16.696-7.473-16.696-16.696s7.479-16.696,16.696-16.696h77.913
		c9.217,0,16.696,7.473,16.696,16.696S304.174,133.565,294.957,133.565z"/>
</g>
<path style="fill:#B7C4CC;" d="M294.957,100.174H244.87v33.391h50.087c9.217,0,16.696-7.473,16.696-16.696
	S304.174,100.174,294.957,100.174z"/>
<g>
	<circle style="fill:#C9D2D9;" cx="150.261" cy="183.652" r="16.696"/>
	<path style="fill:#C9D2D9;" d="M294.957,200.348h-77.913c-9.217,0-16.696-7.473-16.696-16.696s7.479-16.696,16.696-16.696h77.913
		c9.217,0,16.696,7.473,16.696,16.696S304.174,200.348,294.957,200.348z"/>
</g>
<path style="fill:#B7C4CC;" d="M294.957,166.957H244.87v33.391h50.087c9.217,0,16.696-7.473,16.696-16.696
	S304.174,166.957,294.957,166.957z"/>
<g>
	<circle style="fill:#C9D2D9;" cx="150.261" cy="250.435" r="16.696"/>
	<path style="fill:#C9D2D9;" d="M294.957,267.13h-77.913c-9.217,0-16.696-7.473-16.696-16.696s7.479-16.696,16.696-16.696h77.913
		c9.217,0,16.696,7.473,16.696,16.696S304.174,267.13,294.957,267.13z"/>
</g>
<path style="fill:#B7C4CC;" d="M294.957,233.739H244.87v33.391h50.087c9.217,0,16.696-7.473,16.696-16.696
	S304.174,233.739,294.957,233.739z"/>
<g>
	<circle style="fill:#C9D2D9;" cx="150.261" cy="317.217" r="16.696"/>
	<path style="fill:#C9D2D9;" d="M294.957,333.913h-77.913c-9.217,0-16.696-7.473-16.696-16.696s7.479-16.696,16.696-16.696h77.913
		c9.217,0,16.696,7.473,16.696,16.696S304.174,333.913,294.957,333.913z"/>
</g>
<path style="fill:#B7C4CC;" d="M294.957,300.522H244.87v33.391h50.087c9.217,0,16.696-7.473,16.696-16.696
	S304.174,300.522,294.957,300.522z"/>
<path style="fill:#FF9F19;" d="M309.092,510.776c-4.563,0.778-9.351,1.224-14.136,1.224c-63.666,0-211.478,0-211.478,0
	C37.398,512,0,474.602,0,428.522c0-8.682,6.678-15.805,15.137-16.584c0.864-0.174,212.156-0.111,213.037-0.111
	c9.239,0,16.696,7.457,16.696,16.696c0,2.783,0,5.565,0,5.565C244.87,472.487,272.584,504.32,309.092,510.776z"/>
<g>
</g>
<g>
</g>
<g>
</g>
<g>
</g>
<g>
</g>
<g>
</g>
<g>
</g>
<g>
</g>
<g>
</g>
<g>
</g>
<g>
</g>
<g>
</g>
<g>
</g>
<g>
</g>
<g>
</g>
</svg>
